<svg xmlns="http://www.w3.org/2000/svg" viewBox="0 0 250 200" fill="none"><path fill="#000" d="M81.575 189.16c-.92-1.006-1.15-3.22 1.84-5.082 3.02-1.88 13.798-7.336 23.456-8.946-6.503 2.868-16.307 5.439-20.283 10.209-.278-.632-.088-.967-.556-1.263-.376-.085-.659.039-1.131.499-.566 1.593 3.651 2.374 2.193 3.663-2.86 2.529-4.6 1.925-5.519.92M164.326 189.841c.92-1.005 1.15-3.219-1.839-5.081-3.02-1.881-13.798-7.337-23.456-8.946 6.503 2.867 16.306 5.439 20.282 10.208.279-.631.089-.966.557-1.262.375-.086.658.039 1.131.499.566 1.593-3.652 2.373-2.194 3.662 2.861 2.53 4.6 1.926 5.519.92M32.329 52.57c2.99-3.45 13.568-2.99 16.327-.92-3.679-.69-12.418-2.53-13.797 3.68-.381 1.84-5.29.424-2.53-2.76M64.524 19.916c-1.38 0-2.576.69-3.22 3.91-.46 2.299-.23 12.187.69 15.867 0-5.29-1.15-11.269 1.61-15.408-.69 0-.92.23-1.38 0-.23-.23-.23-.46 0-.92.92-.46 3.318 1.38 3.91 0 .788-1.84.096-3.45-1.61-3.45"></path><path fill="#000" d="M30.579 46.91c.391-1.324 1.392-2.275 4.662-1.978 2.336.212 11.752 3.24 15.019 5.166-5.072-1.502-10.478-4.301-15.23-2.83.195-.662.48-.817.39-1.323-.154-.286-.375-.351-.881-.261-.702.751.38 3.573-1.11 3.748-1.988.234-3.335-.886-2.85-2.523"></path><path fill="#000" fill-rule="evenodd" d="M78.321 72.347c-8.278-.307-22.996-1.61-28.515-4.83s-7.589-12.417 3.22-17.246c-.825-.534-1.61-1.035-2.358-1.513-6.34-4.048-9.98-6.371-12.13-12.055-3.22-8.509 6.21-15.867 15.407-10.348 4.414 2.648 6.079 10.275 7.043 14.69.208.953.383 1.756.546 2.327 1.61-4.37 11.268-10.808 15.638-.69 3.172 7.346 2.119 18.844 1.447 26.184a172 172 0 0 0-.298 3.481M56.935 47.511c0-4.37-.721-13.626-4.83-18.167-4.369-4.829-11.497-.966-8.738 4.83 2.3 4.829 9.199 11.038 13.568 13.337m8.279 2.76c.667 6.894 5.85 12.067 9.519 15.728l.369.37c-1.464-3.461-1.477-7.383-1.488-10.92-.008-2.576-.015-4.947-.582-6.788-1.698-5.52-8.594-6.405-7.818 1.61m7.818 18.857c-2.76-4.37-8.048-10.349-12.878-12.418-7.086-3.037-7.836 5.752-2.99 8.048 1.705.807 3.444.915 5.34 1.032 2.967.184 6.32.392 10.528 3.338" clip-rule="evenodd"></path><path fill="#000" d="M214.098 53.26c-2.989-3.45-13.567-2.99-16.327-.92 3.679-.69 12.418-2.53 13.798 3.68.38 1.84 5.289.424 2.529-2.76M181.904 20.606c1.379 0 2.575.69 3.219 3.91.46 2.299.23 12.187-.69 15.866 0-5.289 1.15-11.268-1.609-15.407.689 0 .919.23 1.379 0 .23-.23.23-.46 0-.92-.92-.46-3.318 1.38-3.909 0-.789-1.84-.097-3.45 1.61-3.45"></path><path fill="#000" d="M215.849 47.6c-.392-1.324-1.393-2.275-4.663-1.978-2.335.212-11.751 3.24-15.018 5.166 5.071-1.502 10.478-4.301 15.23-2.83-.196-.662-.481-.817-.391-1.323.155-.286.375-.351.882-.261.702.751-.382 3.573 1.109 3.748 1.988.234 3.335-.886 2.851-2.523"></path><path fill="#000" fill-rule="evenodd" d="M168.106 73.037c8.279-.307 22.996-1.61 28.515-4.83s7.589-12.417-3.219-17.246a450 450 0 0 1 2.358-1.513c6.34-4.048 9.979-6.371 12.129-12.055 3.22-8.509-6.209-15.867-15.407-10.348-4.414 2.648-6.079 10.275-7.042 14.69-.208.953-.384 1.755-.547 2.327-1.61-4.37-11.268-10.808-15.637-.69-3.172 7.346-2.119 18.844-1.447 26.184.12 1.308.227 2.484.297 3.481m21.386-24.836c0-4.37.721-13.626 4.83-18.167 4.369-4.83 11.498-.966 8.738 4.83-2.299 4.829-9.198 11.038-13.568 13.337m-8.278 2.76c-.667 6.894-5.851 12.067-9.519 15.728l-.369.369c1.464-3.46 1.476-7.382 1.487-10.92.008-2.575.016-4.946.582-6.787 1.698-5.52 8.594-6.405 7.819 1.61m-7.819 18.857c2.76-4.37 8.049-10.349 12.878-12.418 7.086-3.038 7.837 5.752 2.989 8.048-1.704.807-3.442.915-5.339 1.033-2.967.183-6.32.39-10.528 3.337" clip-rule="evenodd"></path><path fill="#107C23" stroke="#000" stroke-width="2" d="M195.119 88.401c-8.709-2.333-18.462-.106-22.221 1.188 1.035 1.468 4.76 4.35 7.397 7.934 1.571 2.135 5.661 9.482 8.107 8.839 1.793-.472.407 1.537 5.418 2.88 2.221.595 3.245-.559 3.602-1.892 4.692 2.924 10.543 3.301 11.805 1.258 1.135-1.838-1.638-5.438-3.351-9.706-2.063-5.14-4.093-8.715-10.757-10.5ZM52.803 88.401c8.709-2.333 18.462-.106 22.22 1.188-1.034 1.468-4.76 4.35-7.396 7.934-1.57 2.135-5.661 9.482-8.107 8.839-1.793-.472-.407 1.537-5.418 2.88-2.222.595-3.245-.559-3.602-1.892-4.693 2.924-10.543 3.301-11.805 1.258-1.135-1.838 1.638-5.438 3.351-9.706 2.063-5.14 4.093-8.715 10.757-10.5Z"></path><path fill="#000" d="M83.408 171.949c3.761-5.523 17.707-.69 20.466 1.379-6.209-.689-11.268-2.299-15.867 4.6-1.687 2.529-7.888-1.15-4.6-5.979M163.204 172.666c-3.761-5.522-17.707-.689-20.466 1.38 6.209-.69 11.268-2.299 15.867 4.599 1.687 2.53 7.888-1.149 4.599-5.979"></path><path fill="#030305" d="M213.12 127.738c-7.867-3.768-27.385 5.23-36.375 12.224 2.925 1.885 7.204-.97 14.404 1.276 3.953 1.232 7.145 5.166 18.987 7.311 12.752 2.311 25.038-9.711 22.177-14.993-1.875-3.458-6.742 1.936-10.042.461-5.282-2.359-5.052-4.315-9.151-6.279"></path><path fill="#E4F9E9" d="M212.996 128.112c-7.429-3.56-26.17 4.795-34.656 11.395 1.497 1.275 6.801-.913 13.601 1.209 3.732 1.165 6.747 4.88 17.929 6.909 12.041 2.186 24.098-9.439 20.934-14.148-1.156-1.72-5.663 2.272-8.78.879-4.987-2.229-5.157-4.389-9.028-6.244"></path><path fill="#0E7D21" d="M208.278 134.017c-1.442-5.765-16.243-2.057-25.558 3.91 4.15-1.211 13.781-4.649 18.393-1.217 4.058 3.021 7.958.478 7.165-2.693"></path><path fill="#107C23" stroke="#000" stroke-width="2" d="M234.696 153.754c-13.061-10.139-31.505-13.798-58.871-14.258 15.408 14.948 27.967 47.602 31.275 45.073 3.007-2.3 7.359 8.968 13.108 9.888s5.059-2.07 6.899-3.219c3.219 1.149 7.589 8.173 14.717 7.588 9.429-.773 10.349-31.505-7.128-45.072Z"></path><path fill="#E0F9EA" d="M227.797 154.674c-11.184-9.553-25.756-11.039-40.014-11.039 16.328 1.61 19.813 9.053 20.467 12.648.794 4.37-.92 7.129.92 7.129 2.052 0 2.144-4.64 1.839-6.669-.689-4.599-5.289-9.198-5.289-9.198s9.429 2.529 15.178 14.257c2.705 5.52.69 13.824 3.909 13.108 2.99-.664 2.07-7.588 1.61-9.658s-1.84-7.589-9.658-14.488c5.519 2.53 11.122 7.42 14.027 12.648 4.599 8.279 3.22 14.227 6.439 13.798 3.909-2.07 1.61-13.108-9.428-22.536"></path><path fill="#000" fill-rule="evenodd" d="M177.343 139.956c-2.07 3.833-5.979 13.66-5.059 22.306 1.15 10.809 6.439 13.338 13.108 11.728 6.668-1.609 7.818-12.418 2.989-19.086-3.863-5.336-8.968-12.188-11.038-14.948m.092 4.139c-2.529 8.049-3.516 24.691 3.219 22.767 6.439-1.84 3.45-9.659-.689-14.028-1.682-1.775-2.53-5.979-2.53-8.739" clip-rule="evenodd"></path><path fill="#030305" d="M36.88 124.519c7.867-3.768 27.385 5.229 36.375 12.223-2.925 1.886-7.204-.969-14.404 1.276-3.953 1.233-7.145 5.166-18.987 7.312-12.752 2.311-25.038-9.712-22.177-14.993 1.875-3.459 6.742 1.935 10.043.461 5.281-2.36 5.051-4.316 9.15-6.279"></path><path fill="#E4F9E9" d="M37.004 124.892c7.429-3.56 26.17 4.796 34.656 11.396-1.497 1.274-6.801-.913-13.6 1.209-3.733 1.165-6.748 4.879-17.93 6.909-12.041 2.185-24.098-9.439-20.934-14.148 1.156-1.721 5.663 2.272 8.78.878 4.987-2.229 5.157-4.389 9.028-6.244"></path><path fill="#0E7D21" d="M41.722 130.798c1.442-5.765 16.243-2.058 25.558 3.909-4.15-1.211-13.781-4.649-18.393-1.216-4.058 3.021-7.958.477-7.165-2.693"></path><path fill="#107C23" stroke="#000" stroke-width="2" d="M15.305 150.534c13.06-10.139 31.504-13.797 58.87-14.257-15.408 14.947-27.967 47.602-31.275 45.072-3.007-2.299-7.359 8.969-13.108 9.889s-5.06-2.07-6.899-3.22c-3.22 1.15-7.588 8.173-14.717 7.589-9.429-.773-10.349-31.505 7.129-45.073Z"></path><path fill="#E0F9EA" d="M22.203 151.454c11.184-9.553 25.756-11.038 40.014-11.038-16.328 1.61-19.813 9.053-20.467 12.648-.794 4.369.92 7.129-.92 7.129-2.052 0-2.144-4.64-1.84-6.669.69-4.599 5.29-9.199 5.29-9.199s-9.429 2.53-15.178 14.258c-2.705 5.519-.69 13.823-3.91 13.108-2.989-.664-2.069-7.589-1.609-9.659.46-2.069 1.84-7.588 9.659-14.487-5.52 2.529-11.123 7.419-14.028 12.648-4.6 8.278-3.22 14.227-6.44 13.797-3.908-2.069-1.609-13.107 9.43-22.536"></path><path fill="#000" fill-rule="evenodd" d="M72.657 136.737c2.07 3.832 5.98 13.659 5.06 22.306-1.15 10.808-6.44 13.338-13.109 11.728s-7.818-12.418-2.99-19.087c3.864-5.335 8.97-12.188 11.04-14.947m-.092 4.139c2.53 8.049 3.516 24.691-3.22 22.766-6.438-1.84-3.449-9.658.69-14.028 1.682-1.774 2.53-5.979 2.53-8.738" clip-rule="evenodd"></path><path fill="#000" d="M78.701 160.636c7.302 6.632 23.192 3.874 26.574 0 .725 7.021 9.228 14.187 21.984 13.799 15.944-.484 20.292-12.867 20.292-21.304 5.074 4.842 21.501 2.421 27.782-6.294 7.702-10.686 2.658-18.883-.725-23.24 7.248-.726 15.015-7.251 15.015-14.973 0-12.504-9.313-16.934-14.854-19.57l-.161-.076c4.832-6.536 6.245-15.256 1.208-21.787-5.413-7.021-17.393-3.874-21.983-3.148.724-6.052-1.245-11.862-7.248-15.493-7.042-4.26-14.012-.726-18.323 3.667-1.728-4.636-5.62-8.302-14.532-7.299-10.398 1.172-11.867 8.92-12.557 12.562l-.005.027c-4.349-3.39-11.596-4.005-16.39-1.658-5.835 2.855-8.2 7.674-8.888 14.73-7.577.485-16.998 3.148-19.173 14.768s4.832 13.557 7.526 15.288c-8.492 6.016-12.3 12.113-10.183 21.267 2.899 12.538 12.767 15.458 19.085 15.01-3.624 6.294-2.174 16.704 5.556 23.724"></path><path fill="#E5362A" d="M80.248 157.131c6.95 6.3 22.076 3.68 25.296 0 .69 6.669 8.784 13.476 20.926 13.108 15.178-.46 19.317-12.222 19.317-20.236 4.829 4.599 20.467 2.299 26.446-5.979 7.331-10.152 2.529-17.937-.69-22.077 6.899-.69 14.292-6.887 14.292-14.223 0-11.877-8.865-16.085-14.14-18.589l-.152-.072c4.599-6.21 5.944-14.492 1.15-20.697-5.154-6.669-16.558-3.68-20.927-2.99.69-5.748-1.185-11.268-6.899-14.717-6.704-4.047-13.338-.69-17.442 3.484-1.645-4.404-5.35-7.887-13.833-6.933-9.898 1.112-11.296 8.472-11.953 11.932l-.005.026c-4.139-3.22-11.038-3.805-15.602-1.576-5.554 2.713-7.804 7.29-8.46 13.994-7.212.46-16.18 2.99-18.25 14.027-2.07 11.039 4.599 12.878 7.163 14.522-8.083 5.715-11.708 11.507-9.693 20.203 2.76 11.909 12.153 14.683 18.167 14.257-3.45 5.979-2.07 15.868 5.289 22.536"></path><path fill="#E1FBE5" fill-rule="evenodd" d="M101.607 67.887c2.446-1.232 7.176-.494 8.114 1.576-2.345-.46-4.925-.69-6.472.034-1.264.592-2.286 1.482-2.522 2.634q.208.26.317.551a7 7 0 0 0-.365-.165q-.01.21.015.43c-.42-.195-.727-.45-.936-.745-2.45-.684-5.932-.565-8.094 1.17-2.58 2.07-2.58 4.6-2.346 7.589-3.048-2.07-2.11-7.13.704-9.199 2.429-1.786 6.912-1.796 9.382-.613-.052-1.207.873-2.591 2.203-3.262m12.335 74.014a6 6 0 0 0-.25.726c-1.645 2.175-5.67 5.433-10.068 5.023-6.092-.569-8.412-5.181-8.655-10.142q.346-.313.681-.667a10 10 0 0 1-.694.356q-.01-.292-.01-.585a4.3 4.3 0 0 0-.684.885c-3.585 1.432-9.3 1.962-11.979-2.265-2.707-4.271-1.466-8.323.563-11.08q.192-.089.375-.188a10 10 0 0 0-.755-.087c-2.463-.235-9.263-.883-9.798-6.122-.493-4.834 2.576-6.669 4.764-7.977l.002-.001.407-.246a6 6 0 0 0 .69-.055l-.285-.197.05-.033-.079.012c-3.795-2.641-6-4.503-5.314-8.98.703-4.6 5.393-8.28 8.677-8.51-2.58-1.839-2.986-5.791-1.133-8.508s4.65-3.45 8.402-2.53c-2.58-2.989-8.404-1.812-10.787 1.38-1.833 2.456-1.892 8.094 1.821 9.39-4.391.026-9.38 5.094-9.794 8.548-.475 3.955 2.792 9.04 7.069 9.457-2.942.88-6.531 3.505-6.366 7.56.244 5.972 6.217 8.498 10.556 7.576-1.898 1.415-3.335 4.833-2.583 8.521 1.15 5.634 8.901 9.564 15.058 5.262-1.366 3.656.065 9.953 7.69 11.295 5.103.898 10.036-2.107 11.917-5.028.019 3.943 2.769 8.802 9.658 9.168 7.201-.168 9.012-4.024 10.107-6.355.402-.858.708-1.509 1.149-1.694.337.142.676.401 1.065.7 1.506 1.156 3.779 2.9 9.723.68 4.925-1.84 5.863-5.979 6.566-9.889 3.049.69 7.035.101 9.615-3.219 2.803-3.608 1.418-6.959.734-8.615-.232-.561-.383-.927-.265-1.043.083-.082.364-.134.777-.212 1.922-.359 6.7-1.253 7.665-8.067.372-2.623-.621-3.61-1.476-4.461-.345-.342-.667-.662-.869-1.058.249-.365.726-.698 1.286-1.088 1.557-1.084 3.75-2.611 3.405-6.501-.354-3.984-2.835-4.967-4.44-5.603-.526-.208-.957-.379-1.189-.606.235-.345.528-.632.828-.927.902-.884 1.869-1.832 1.517-4.592-.392-3.077-3.471-4.123-5.297-4.744-.617-.21-1.091-.37-1.269-.545.938-1.38 1.407-4.14.469-5.98-1.76-3.451-6.397-3.45-9.895-3.449h-.189c-.234-2.99-1.876-4.369-3.986-5.289-1.876-.817-6.801-1.15-9.146.92 2.11-.23 5.393-.46 7.27.69 1.815.83 3.283 3.45 3.517 5.52 2.814-.92 7.622-.69 9.381 2.069 1.172 1.84 1.407 3.68 0 6.669q.17.021.368.042c2.038.23 6.034.682 6.432 4.787.234 2.409-.975 3.623-2.312 4.967-.322.323-.652.655-.971 1.012.314.205.772.41 1.298.646 1.832.822 4.493 2.015 4.799 4.873.469 4.369-2.345 5.749-5.159 7.129l.081.066.081.066c1.427 1.158 3.699 3.003 2.652 6.767-1.328 4.775-5.999 5.658-8.491 6.128l-.42.081c1.407 1.379 3.585 4.829 1.407 8.278-2.845 4.507-7.035 3.45-10.318 2.3-.124.668-.052 1.432.027 2.262.219 2.315.487 5.148-3.311 7.856-5.159 3.68-11.256-.92-13.132-2.529-.135.329-.273.762-.433 1.262-.957 2.986-2.669 8.331-8.713 7.936-6.458-.422-9.162-2.976-9.925-7.839.136-.483.167-.943.076-1.359q-.09.158-.205.332-.017-.165-.03-.332" clip-rule="evenodd"></path><ellipse cx="121.554" cy="104.082" fill="#EF5D44" rx="39.553" ry="31.275"></ellipse><path fill="#030305" d="M161.798 102.472c3.219 23.686-18.817 39.323-40.662 39.323s-46.223-17.247-39.324-48.751c-.92 29.205 18.169 43.232 40.014 43.232 21.844 0 39.512-10.348 39.972-33.804"></path><path fill="#E5F5E9" d="M112.427 88.574c1.432 1.32 5.341 3.358 7.027 3.639s8.146.753 10.962-1.125c.843-.562 1.025-1.523.562-1.967-.585-.562-1.974-.484-3.092 0-1.117.483-3.715 1.623-6.244 1.623s-5.953-1.015-9.215-2.17"></path><path fill="#E5F5E9" d="M109.684 92.124c1.379 2.07 7.012 4.311 10.118 4.829 3.105.517 10.578.552 12.864-.971 1.051-.701 1.277-1.9.701-2.453-.73-.7-2.462-.603-3.855 0-1.394.602-4.486 1.814-7.64 1.814s-8.509-1.15-12.188-3.22M92.683 114.206c-1.816-3.861-3.81-8.175-3.472-14.124.338-5.95 2.93-15.75 9.282-16.495 1.824-.214 3.131.722 3.755 1.981.789 1.593.449 4.137-1.365 6.113s-3.968 1.764-6.26 6.276c-2.291 4.513-2.123 8.723-1.94 16.249"></path><path fill="#E5F5E9" d="M99.815 122.019c-1.913-3.177-4.016-6.727-4.016-11.772s1.912-13.454 7.841-14.388c1.702-.268 2.981.46 3.634 1.495.827 1.308.643 3.475-.956 5.232s-3.634 1.682-5.547 5.606-1.53 7.474-.956 13.827"></path><path fill="#E5F5E9" d="M106.739 127.888c-1.531-2.613-3.217-5.533-3.43-9.793s.826-11.43 5.114-12.436c1.231-.288 2.195.28 2.716 1.13.658 1.074.616 2.91-.477 4.452-1.092 1.543-2.581 1.553-3.811 4.936s-.8 6.367-.112 11.711M151.524 115.923c1.816-3.861 3.81-8.174 3.472-14.124-.337-5.95-2.93-15.75-9.282-16.496-1.823-.213-3.131.723-3.755 1.982-.789 1.593-.449 4.137 1.365 6.113s3.968 1.764 6.259 6.276c2.292 4.513 2.124 8.723 1.941 16.249"></path><path fill="#E5F5E9" d="M144.392 123.736c1.913-3.177 4.017-6.727 4.017-11.772s-1.913-13.454-7.842-14.388c-1.702-.268-2.981.46-3.634 1.495-.826 1.308-.643 3.475.956 5.232s3.634 1.682 5.547 5.606 1.53 7.474.956 13.827"></path><path fill="#E5F5E9" d="M137.469 129.605c1.53-2.613 3.216-5.533 3.429-9.793.214-4.26-.826-11.43-5.114-12.435-1.231-.289-2.195.279-2.715 1.129-.659 1.074-.617 2.91.476 4.452 1.093 1.543 2.581 1.553 3.811 4.936s.8 6.367.113 11.711"></path><ellipse cx="122.014" cy="74.187" fill="#E5F5E9" rx="13.338" ry="11.038"></ellipse><ellipse cx="121.554" cy="68.898" fill="#000" rx="10.118" ry="9.888"></ellipse><ellipse cx="119.485" cy="64.298" fill="#E5F5E9" rx="3.909" ry="2.99"></ellipse><path fill="#E5F5E9" d="M111.574 121.48c-.05 2.836 2.609 6.271 4.181 7.875-.653-3.794-.565-8.757 2.314-8.706s3.018 1.491 4.053 1.491c.812 0 3.228-1.598 4.803-.152s1.6 4.52.825 7.58c1.629-1.626 4.897-5.445 4.937-7.714.05-2.836-1.112-4.984-4.71-5.048-3.599-.064-4.52 2.015-5.733 1.993-1.213-.021-1.469-1.884-4.824-2.18-3.115-.275-5.787 1.552-5.846 4.861"></path><path fill="#030305" d="M137.882 22.21c0 9.271-7.05 16.321-16.322 16.321s-16.563-7.28-16.563-16.551c0-9.272 7.05-16.322 16.321-16.322s16.564 7.28 16.564 16.552"></path><circle cx="121.784" cy="22.21" r="15.867" fill="#F15C40"></circle><path fill="#030305" d="M110.056 22.21c0-4.048 3.45-7.359 6.209-8.509-3.219 2.246-5.059 5.565-5.059 8.509s1.84 5.979 4.139 8.048c-2.989-1.61-5.289-4-5.289-8.048"></path><ellipse cx="121.554" cy="21.98" fill="#FBF9F4" rx="3.219" ry="3.679"></ellipse><path fill="#FBF9F4" d="M132.362 21.638c0-7.175-7.358-9.428-10.808-8.739 3.91.367 8.969 2.114 8.969 8.74 0 6.898-5.749 9.703-10.348 9.658 3.679 1.15 12.187-.69 12.187-9.659"></path><path fill="#FBF9F4" d="M136.272 21.929c0-9.993-9.199-14.176-15.868-11.646 7.589-.69 13.798 2.958 13.798 11.646s-10.348 14.57-19.547 10.89c6.209 6.408 21.617.92 21.617-10.89"></path><path fill="#030305" d="M87.9 8.332c8.433 2.23 17.464 21.731 19.777 32.884-3.449-.46-4.857-5.407-11.796-8.364-3.809-1.624-8.79-.697-19.197-6.739C65.474 19.608 63.91 2.49 69.514.323c3.669-1.42 3.879 5.842 7.348 6.859 5.551 1.626 6.644-.012 11.038 1.15"></path><path fill="#E4F9E9" d="M87.752 8.696c7.965 2.104 16.821 20.614 19.005 31.14-1.966 0-4.587-5.103-11.14-7.894-3.598-1.532-8.301-.658-18.132-6.36C66.9 19.442 65.254 2.775 70.715 1.24c1.995-.56 2.84 5.4 6.116 6.36 5.243 1.535 6.772 0 10.922 1.096"></path><path fill="#0E7D21" d="M87.518 16.251c4.835-3.455 13.702 8.961 16.928 19.543-2.375-3.612-7.48-12.473-13.218-12.848-5.048-.33-6.37-4.794-3.71-6.695"></path><path fill="#030305" d="M157.149 10.397c-8.623 1.316-19.686 19.742-23.177 30.584 3.479-.089 5.407-4.857 12.622-7.056 3.961-1.208 8.814.245 19.808-4.65 11.839-5.27 15.223-22.124 9.884-24.877-3.497-1.803-4.481 5.395-8.039 6.035-5.694 1.024-6.605-.721-11.098-.036"></path><path fill="#E4F9E9" d="M157.257 10.776c-8.144 1.241-18.926 18.699-22.223 28.932 1.955.21 5.107-4.585 11.921-6.66 3.74-1.139 8.323.233 18.706-4.386 11.182-4.975 14.599-21.37 9.334-23.48-1.925-.77-3.401 5.066-6.761 5.67-5.377.966-6.733-.723-10.977-.076"></path><path fill="#0E7D21" d="M156.683 18.313c-4.438-3.952-14.581 7.446-18.919 17.622 2.748-3.338 8.771-11.602 14.515-11.362 5.054.211 6.845-4.087 4.404-6.26"></path></svg>